<svg width="280" height="80" xmlns="http://www.w3.org/2000/svg" xmlns:xlink="http://www.w3.org/1999/xlink" viewBox="0 0 495.575 134.75"><defs><style>.cls-1{fill:#fff;}.cls-2{fill:url(#gradient_11);}.cls-3{fill:url(#gradient_11-2);}</style><linearGradient id="gradient_11" x1="36.178" y1="121.779" x2="28.002" y2="43.985" gradientUnits="userSpaceOnUse"><stop offset="0.086" stop-color="#fff" stop-opacity="0"/><stop offset="0.758" stop-color="#fff"/></linearGradient><linearGradient id="gradient_11-2" x1="99.499" y1="12.971" x2="91.341" y2="90.589" xlink:href="#gradient_11"/></defs><title>nexar-full</title><g id="text"><path class="cls-1" d="M937.9,507.291H893.408v65.418h13.648V519.528h32.473v53.181h13.649V522.572A15.282,15.282,0,0,0,937.9,507.291Z" transform="translate(-708.801 -472.625)"/><path class="cls-1" d="M1180.874,507.291a14.619,14.619,0,0,0-14.619,14.619v50.8H1179.9V519.528h24.472V507.291Z" transform="translate(-708.801 -472.625)"/><polygon class="cls-1" points="379.8 34.666 366.976 34.666 349.798 58.484 332.62 34.666 319.795 34.666 343.385 67.375 319.795 100.084 332.62 100.084 349.798 76.266 366.976 100.084 379.8 100.084 356.21 67.375 379.8 34.666"/><path class="cls-1" d="M1143.323,515.858a32.709,32.709,0,1,0,0,48.284v8.567h10.7V507.291h-10.7Zm-22.013,46.155A22.013,22.013,0,1,1,1143.323,540,22.013,22.013,0,0,1,1121.31,562.013Z" transform="translate(-708.801 -472.625)"/><path class="cls-1" d="M995.3,507.291a32.709,32.709,0,1,0,0,65.418c11.129,0,22.8-4.706,28.929-13.928l-10.854-4.677c-4.412,5.339-11.28,7.909-18.075,7.909a22.007,22.007,0,0,1-21.637-18.042h54.107a32.733,32.733,0,0,0-32.47-36.681Zm-21.01,26.126a22.019,22.019,0,0,1,42.02,0Z" transform="translate(-708.801 -472.625)"/></g><g id="logo"><polygon class="cls-1" points="99.954 91.494 79.749 134.75 34.941 43.256 55.146 0 99.954 91.494"/><polygon class="cls-2" points="34.941 43.256 0 118.059 71.574 118.059 34.941 43.256"/><polygon class="cls-3" points="99.954 91.494 134.895 16.692 63.321 16.692 99.954 91.494"/></g></svg>